<svg width="25" height="28" viewBox="0 0 25 28" fill="none" xmlns="http://www.w3.org/2000/svg">
<path d="M13.6305 24.3373C11.9459 24.3373 10.7744 24.7534 9.91385 25.0759C9.0784 25.389 8.78296 25.4961 8.3207 25.4961C8.07303 25.4961 7.76987 25.4205 7.26745 25.0112C6.70862 24.5561 6.12271 23.872 5.30853 22.8659C3.75859 20.9227 2.50388 17.8802 2.50388 15.146C2.50388 11.2429 5.2556 9.30639 8.03588 9.30639C8.62721 9.30639 9.24662 9.47719 10.1004 9.77384C10.1753 9.79989 10.2559 9.82825 10.3406 9.85805C10.6784 9.97697 11.0813 10.1188 11.4537 10.2281C11.9288 10.3674 12.5573 10.5187 13.2439 10.5187C13.9363 10.5187 14.5817 10.3474 15.0333 10.2106C15.3468 10.1157 15.7159 9.98798 16.0419 9.87519C16.1777 9.82822 16.3059 9.78383 16.4196 9.74548C17.3171 9.44265 18.0951 9.23508 18.8792 9.23508C18.9786 9.23508 19.1005 9.23614 19.2459 9.24255C19.2802 9.24406 19.3096 9.24612 19.3349 9.24844C19.3621 9.34431 19.3967 9.50392 19.421 9.75232C19.4759 10.3128 19.454 11.0205 19.3985 11.9426C19.389 12.0999 19.3784 12.2645 19.3675 12.4347C19.3193 13.1858 19.2642 14.0452 19.2642 14.8608C19.2642 16.4998 19.7229 17.8895 20.4036 19.019C21.0098 20.0246 21.5439 21.0102 21.7977 21.8784C22.0307 22.6756 21.9032 22.9171 21.8729 22.9605C21.1741 23.8376 20.6346 24.4828 20.08 24.9334C19.5731 25.3452 19.213 25.4605 18.8792 25.4605C18.2891 25.4605 17.9856 25.3437 17.2739 25.068C16.4451 24.7469 15.3412 24.3373 13.6305 24.3373ZM19.4625 9.26903C19.4625 9.26906 19.4615 9.26876 19.4596 9.26808C19.4616 9.26867 19.4625 9.26901 19.4625 9.26903Z" fill="#000100" stroke="#000100" stroke-width="5"/>
</svg>
