<svg width="7" height="11" viewBox="0 0 7 11" fill="none" xmlns="http://www.w3.org/2000/svg">
<path d="M5.36775 6.8284C5.4422 8.0856 5.09288 9.29505 4.20839 9.97026C3.55131 10.4719 2.75253 10.6026 2.09277 10.4219C1.44489 10.2445 0.927571 9.76988 0.772266 9.01105C0.594555 8.14274 0.500813 7.2446 0.500813 6.32556C0.500813 4.75289 0.775323 3.24096 1.27573 1.83485C1.56603 1.01912 2.39616 0.500813 3.33822 0.500813C4.69872 0.500813 5.80162 1.60372 5.80162 2.96421V3.13325C5.80162 3.41661 5.75114 3.70836 5.66838 4.01048C5.46565 4.75062 5.35284 5.52832 5.35284 6.32556C5.35284 6.49409 5.35789 6.66176 5.36775 6.8284Z" fill="#FBBC05" stroke="url(#paint0_linear_3_78)"/>
<defs>
<linearGradient id="paint0_linear_3_78" x1="3.15122" y1="0" x2="3.15122" y2="12.6511" gradientUnits="userSpaceOnUse">
<stop stop-color="#4017E4"/>
<stop offset="1" stop-color="#9811BA"/>
</linearGradient>
</defs>
</svg>
