<svg width="21" height="10" viewBox="0 0 21 10" fill="none" xmlns="http://www.w3.org/2000/svg">
<path d="M15.8912 5.93953C14.815 5.49027 13.6435 5.26598 12.4128 5.26598C9.80064 5.26598 7.44842 6.37783 5.77355 8.12779C5.18004 8.74791 4.3762 9.21659 3.56479 9.39933C2.75755 9.58114 1.9828 9.47432 1.37556 9.01076C0.484689 8.33068 0.251422 7.1551 0.850467 6.33882C3.43854 2.8122 7.64986 0.516982 12.4128 0.516982C15.1173 0.516982 17.5078 1.20324 19.5431 2.39143C20.6368 3.02997 20.7425 4.59061 19.7204 5.59673C18.806 6.49691 17.2677 6.51415 15.8912 5.93953Z" fill="#EA4335" stroke="url(#paint0_linear_3_79)"/>
<defs>
<linearGradient id="paint0_linear_3_79" x1="10.7544" y1="0" x2="10.7544" y2="11.7774" gradientUnits="userSpaceOnUse">
<stop stop-color="#4017E4"/>
<stop offset="1" stop-color="#9811BA"/>
</linearGradient>
</defs>
</svg>
