<svg width="14" height="14" viewBox="0 0 14 14" fill="none" xmlns="http://www.w3.org/2000/svg">
<path d="M6.27683 9.47131L5.92431 9.10217L6.27683 9.4713C6.37967 9.37309 6.47931 9.27219 6.57567 9.1687L6.2021 8.82089L6.57567 9.1687C6.97722 8.7374 7.18905 8.24558 7.2144 7.74101C7.23953 7.24098 7.07969 6.76807 6.80684 6.36971C6.26639 5.58061 5.25976 5.04249 4.13983 5.04249H2.77646C1.52496 5.04249 0.510416 4.02795 0.510416 2.77645C0.510416 1.52496 1.52495 0.510416 2.77645 0.510416H10.7825C12.2736 0.510416 13.4896 1.56681 13.4896 2.93632C13.4896 6.68243 12.2883 9.8762 10.1952 12.2169C9.74759 12.7175 9.06865 12.9771 8.33961 12.9771H7.27948C6.26846 12.9771 5.44886 12.1575 5.44886 11.1465C5.44886 10.544 5.77025 9.95508 6.27683 9.47131Z" fill="#4285F4" stroke="url(#paint0_linear_3_76)"/>
<defs>
<linearGradient id="paint0_linear_3_76" x1="7" y1="0" x2="7" y2="13.4875" gradientUnits="userSpaceOnUse">
<stop stop-color="#4017E4"/>
<stop offset="1" stop-color="#9811BA"/>
</linearGradient>
</defs>
</svg>
