<svg width="21" height="12" viewBox="0 0 21 12" fill="none" xmlns="http://www.w3.org/2000/svg">
<path d="M19.4769 9.80512C17.6413 10.6838 15.4968 11.1726 13.0969 11.1726C7.81789 11.1726 3.22158 8.33065 0.79098 4.11891C0.604002 3.79491 0.512951 3.41288 0.512951 3.01219V2.8507C0.512951 1.5596 1.5596 0.512951 2.8507 0.512951C3.83655 0.512951 4.74458 1.1706 5.33726 2.11622C6.9545 4.69655 9.81839 6.46066 13.0969 6.46066C14.2253 6.46066 15.2693 6.30037 16.2143 6.0028C17.3996 5.62954 18.6419 5.661 19.5108 6.32504C20.1609 6.82189 20.4908 7.54903 20.487 8.2179C20.4832 8.87276 20.1639 9.47629 19.4769 9.80512Z" fill="#34A853" stroke="url(#paint0_linear_3_77)"/>
<defs>
<linearGradient id="paint0_linear_3_77" x1="11.3982" y1="0" x2="11.3982" y2="11.6856" gradientUnits="userSpaceOnUse">
<stop stop-color="#4017E4"/>
<stop offset="1" stop-color="#9811BA"/>
</linearGradient>
</defs>
</svg>
