<svg width="28" height="27" viewBox="0 0 28 27" fill="none" xmlns="http://www.w3.org/2000/svg">
<path d="M14 2.5C15.1702 2.5 16.3004 2.67639 17.3654 3.0044C17.2774 3.00294 17.1891 3.00217 17.1005 3.00217C14.9921 3.00217 12.9748 3.65486 11.4833 5.15688C9.99119 6.65954 9.3125 8.72262 9.3125 10.9823V11.6463C7.29433 11.9898 5.75781 13.7469 5.75781 15.8629V16.3798C5.75781 18.4958 7.29433 20.253 9.3125 20.5964V22.6925C9.3125 23.3377 9.01054 23.8168 8.7273 24.0297C8.59663 24.128 8.49902 24.1508 8.44688 24.1548C8.40886 24.1577 8.3121 24.1595 8.13711 24.0547C4.76092 22.0343 2.5 18.3278 2.5 14.0856C2.5 7.67264 7.66306 2.5 14 2.5ZM22.7344 7.36274C22.7344 7.04721 22.6996 6.73468 22.6326 6.43068C24.4163 8.4699 25.5 11.1476 25.5 14.0856C25.5 18.3278 23.2391 22.0343 19.8629 24.0547C19.6879 24.1595 19.5911 24.1577 19.5531 24.1548C19.501 24.1508 19.4034 24.128 19.2727 24.0297C18.9895 23.8168 18.6875 23.3377 18.6875 22.6925V20.5918C20.4543 20.2787 21.8697 18.8711 22.1482 17.0437L22.227 16.527C22.5696 14.2798 21.1124 12.225 19.0122 11.7094C21.1114 11.4425 22.7344 9.64995 22.7344 7.47828V7.36274Z" fill="#1778F2" stroke="#0775F5" stroke-width="5"/>
</svg>
