<svg width="15" height="12" viewBox="0 0 15 12" fill="none" xmlns="http://www.w3.org/2000/svg">
<path fill-rule="evenodd" clip-rule="evenodd" d="M2.04674 8.63092C3.44657 10.2929 5.66916 12 8.87708 12C11.0527 12 12.7845 11.2127 14.1128 10.1853C14.2986 10.0416 14.3278 9.78049 14.1781 9.60216C14.0283 9.42384 13.7563 9.39578 13.5705 9.53951C12.3642 10.4725 10.8183 11.1706 8.87708 11.1706C6.02684 11.1706 4.02695 9.66261 2.71883 8.10952C2.06573 7.33411 1.59375 6.55664 1.28512 5.97235C1.13107 5.6807 1.01841 5.43851 0.944778 5.27059C0.926457 5.2288 0.910563 5.19164 0.89706 5.15949C0.930029 5.08502 0.976409 4.98359 1.03646 4.85995C1.17437 4.57606 1.38384 4.17622 1.66795 3.71759C2.23802 2.79732 3.09914 1.65573 4.27168 0.735785C4.45644 0.590823 4.48377 0.329562 4.33273 0.152242C4.18168 -0.025079 3.90945 -0.0513116 3.72469 0.0936501C2.44756 1.09566 1.52564 2.32428 0.925096 3.29374C0.623891 3.77998 0.40116 4.20487 0.253183 4.5095C0.179148 4.66192 0.123693 4.7845 0.0863691 4.86992C0.0677037 4.91265 0.0535617 4.9461 0.043888 4.96938C0.0390508 4.98101 0.0353296 4.99011 0.0327176 4.99655L0.0296303 5.0042L0.0287086 5.00651L0.028403 5.00727L0.0282889 5.00756C0.0282427 5.00768 0.0282007 5.00778 0.432108 5.15515C0.0250574 5.29431 0.0251234 5.29449 0.0251986 5.29469L0.0253952 5.29522L0.0259546 5.29671L0.0277399 5.30145C0.029227 5.30538 0.031309 5.31084 0.0339908 5.31778C0.0393541 5.33166 0.0471186 5.35147 0.0573245 5.37682C0.0777338 5.42752 0.107924 5.5004 0.14822 5.59229C0.228781 5.77602 0.349924 6.03619 0.514292 6.34737C0.842505 6.96873 1.34587 7.7988 2.04674 8.63092ZM0.432108 5.15515L0.0250574 5.29431C-0.00940159 5.20148 -0.00828722 5.0999 0.0282007 5.00778L0.432108 5.15515Z" fill="#677185"/>
</svg>
