<svg width="6" height="6" viewBox="0 0 6 6" fill="none" xmlns="http://www.w3.org/2000/svg">
<path fill-rule="evenodd" clip-rule="evenodd" d="M3.42674 4.9438C2.02418 4.9438 0.886503 3.84451 0.886503 2.48787C0.886503 1.80051 1.17755 1.18087 1.64822 0.734454C1.82297 0.56871 1.82566 0.297385 1.65423 0.128434C1.48279 -0.0405164 1.20216 -0.0431155 1.02741 0.122629C0.393976 0.723412 0 1.56081 0 2.48787C0 4.31801 1.53473 5.80088 3.42674 5.80088C4.38476 5.80088 5.25172 5.42002 5.87318 4.80757C6.04461 4.63862 6.04192 4.3673 5.86717 4.20155C5.69242 4.03581 5.41178 4.03841 5.24035 4.20736C4.77866 4.66236 4.13695 4.9438 3.42674 4.9438Z" fill="#677185"/>
</svg>
