<svg width="5" height="5" viewBox="0 0 5 5" fill="none" xmlns="http://www.w3.org/2000/svg">
<path fill-rule="evenodd" clip-rule="evenodd" d="M4.18743 4.99289C4.45268 5.03937 4.70391 4.85317 4.74855 4.577C4.78278 4.36524 4.80224 4.14617 4.80224 3.92027C4.80224 1.75577 3.11697 0 1.03702 0C0.820057 0 0.609656 0.020256 0.406273 0.055899C0.141022 0.102384 -0.0378134 0.36395 0.00683271 0.640124C0.0514789 0.916298 0.3027 1.1025 0.567951 1.05601C0.722317 1.02896 0.878524 1.01418 1.03702 1.01418C2.57884 1.01418 3.82817 2.31571 3.82817 3.92027C3.82817 4.0853 3.81398 4.24794 3.78799 4.40866C3.74335 4.68483 3.92218 4.9464 4.18743 4.99289Z" fill="#677185"/>
</svg>
