<svg width="6" height="6" viewBox="0 0 6 6" fill="none" xmlns="http://www.w3.org/2000/svg">
<path fill-rule="evenodd" clip-rule="evenodd" d="M0 2.48787C0 4.31794 1.53385 5.80088 3.42674 5.80088C4.38563 5.80088 5.25177 5.41998 5.87318 4.80757C6.04461 4.63862 6.04192 4.3673 5.86717 4.20155C5.69242 4.03581 5.41178 4.03841 5.24035 4.20736C4.77861 4.66241 4.1377 4.9438 3.42674 4.9438C2.02345 4.9438 0.886503 3.84459 0.886503 2.48787C0.886503 1.80123 1.1776 1.18082 1.64822 0.734454C1.82297 0.56871 1.82566 0.297385 1.65423 0.128434C1.48279 -0.0405164 1.20216 -0.0431155 1.0274 0.122629C0.393929 0.723457 0 1.56165 0 2.48787Z" fill="#677185"/>
</svg>
