<svg width="13" height="11" viewBox="0 0 13 11" fill="none" xmlns="http://www.w3.org/2000/svg">
<path fill-rule="evenodd" clip-rule="evenodd" d="M9.88357 10.8936C10.0632 11.0473 10.3391 11.0328 10.4999 10.861C11.3442 9.95913 11.9499 9.02002 12.3444 8.30831C12.542 7.95178 12.6875 7.65051 12.7842 7.43698C12.8326 7.33017 12.8688 7.24517 12.8932 7.18603C12.9055 7.15645 12.9147 7.13333 12.9211 7.11716C12.9243 7.10908 12.9268 7.10273 12.9286 7.09818L12.9307 7.09272L12.9313 7.09102L12.9316 7.09043L12.9316 7.09019C12.9317 7.0901 12.9317 7.09001 12.5214 6.94777C12.9294 6.79954 12.9293 6.79937 12.9292 6.79918L12.9285 6.79718L12.9265 6.79246C12.925 6.78852 12.9227 6.78304 12.9198 6.77604C12.9141 6.76206 12.9057 6.74206 12.8948 6.71643C12.8729 6.66519 12.8405 6.59143 12.7975 6.49836C12.7115 6.3123 12.5827 6.04868 12.4095 5.7333C12.0636 5.10352 11.5379 4.26215 10.8182 3.41868C9.3832 1.7368 7.13388 3.89694e-06 3.97121 3.89694e-06C2.54481 3.89694e-06 1.2994 0.355011 0.230926 0.900818C0.0182965 1.00944 -0.0620077 1.26234 0.0515614 1.4657C0.16513 1.66906 0.429567 1.74586 0.642196 1.63724C1.59738 1.14931 2.70258 0.834889 3.97121 0.834889C6.76524 0.834889 8.791 2.36325 10.1419 3.94653C10.8152 4.73564 11.3101 5.52685 11.6366 6.12151C11.7997 6.41834 11.92 6.6649 11.9991 6.83597C12.0191 6.87928 12.0365 6.91772 12.0512 6.95089C12.0328 6.9938 12.0102 7.04552 11.9832 7.10516C11.8943 7.30134 11.7586 7.58259 11.5731 7.91731C11.2013 8.58809 10.6337 9.46638 9.84952 10.3041C9.68873 10.4759 9.70398 10.7398 9.88357 10.8936ZM12.5214 6.94777L12.9294 6.79954C12.9665 6.89298 12.9673 6.99604 12.9317 7.09001L12.5214 6.94777Z" fill="#677185"/>
</svg>
